<svg width="110" height="44" viewBox="0 0 110 44" fill="none" xmlns="http://www.w3.org/2000/svg">
<g clip-path="url(#clip0_119_517)">
<path d="M81.4647 21.6445C80.2192 21.6445 79.3774 22.4311 79.1808 23.2454L74.7302 41.81H78.6978C79.6224 41.7962 80.0329 41.534 80.2192 40.7025L84.7905 21.6445H81.4647Z" fill="#0080CB"/>
<path d="M52.5683 32.2049C52.2543 33.5331 50.305 41.7649 50.305 41.7649H52.7856C54.1863 41.7615 55.5387 40.9749 55.832 39.7915C55.832 39.7915 56.629 36.5347 57.5501 32.7914C58.4713 29.0515 56.1253 27.1333 51.9611 27.1333H41.573C41.1072 27.1333 41.0037 27.6646 41.4729 27.8716C42.6287 28.3857 42.8323 28.9377 42.5977 29.883L39.7617 41.8201H42.2423C43.643 41.8167 44.9954 41.0301 45.2887 39.8467L47.5692 30.5592C47.7141 30.0382 47.9004 29.9244 48.4075 29.9244H50.8743C52.1681 29.9244 52.8822 30.8766 52.5683 32.2049Z" fill="#0080CB"/>
<path d="M13.4656 23.6694H2.80498C2.23227 23.6694 2.10807 24.3249 2.68768 24.5802C4.12289 25.2151 4.37819 25.8982 4.09874 27.0608L1.02131 39.9019C0.904007 40.7989 1.22486 41.8063 3.15343 41.8063L3.13963 41.8132H9.6533C16.681 41.8132 21.6629 38.0837 22.8531 33.1881C23.9503 28.6858 21.4938 23.6694 13.469 23.6694H13.4656ZM16.9398 33.3813C15.7185 38.5943 10.6952 39.3533 7.70403 39.3533H7.22793L10.2881 26.5157H11.951C16.8052 26.5157 17.716 30.0693 16.9398 33.3813Z" fill="#E62310"/>
<path d="M33.2937 26.916C27.6598 26.916 25.4552 29.1275 24.9239 31.5218H28.7811C29.0743 31.5218 29.2675 31.5322 29.4849 31.2424C30.0576 30.4834 31.065 29.2758 33.1833 29.2758C34.4046 29.2758 34.8773 29.9382 34.6806 30.7594C34.4357 31.7806 33.6974 32.2774 31.617 32.8121C27.5114 33.8506 23.6129 34.9995 22.9194 37.894C22.4088 40.0262 23.4853 42.0582 27.7633 42.0582C28.9501 42.0582 31.1961 41.5718 32.6175 40.2125H32.6969C32.6969 40.2125 32.8383 41.6546 35.1636 41.8098H36.9508L39.3727 31.6909C39.8902 29.8175 40.1558 26.916 33.2937 26.916ZM29.9127 39.5294C27.5701 39.9537 26.9249 37.3248 29.8195 36.0828C31.0098 35.5722 32.4692 35.0133 33.9665 34.5647C33.7284 35.5066 33.0971 38.9532 29.9127 39.5294Z" fill="#E62310"/>
<path d="M68.5312 26.9163C62.8973 26.9163 60.6927 29.1277 60.1614 31.5221H64.0186C64.3118 31.5221 64.505 31.5324 64.7224 31.2426C65.2951 30.4836 66.3025 29.2761 68.4208 29.2761C69.6421 29.2761 70.1148 29.9385 69.9181 30.7596C69.6732 31.7808 68.9349 32.2776 66.858 32.8124C62.749 33.8508 58.8539 34.9997 58.1604 37.8943C57.6498 40.0264 58.7262 42.0585 63.0043 42.0585C64.1911 42.0585 66.4371 41.572 67.8585 40.2127H67.9378C67.9378 40.2127 68.0758 41.6548 70.4046 41.8101H72.1917L74.6171 31.6911C75.1346 29.8177 75.4003 26.9163 68.5381 26.9163H68.5312ZM65.1502 39.5296C62.8076 39.954 62.1625 37.325 65.057 36.083C66.2473 35.5724 67.7067 35.0135 69.204 34.565C68.9659 35.5069 68.3346 38.9534 65.1502 39.5296Z" fill="#0080CB"/>
<path d="M77.5485 6.00522C77.0448 5.98452 76.5135 5.99488 75.9477 6.04318C75.6027 6.09493 77.3553 9.37936 80.1154 10.4178C79.7083 10.5144 79.2839 10.649 78.8458 10.8215C78.587 10.9422 80.1913 13.6022 83.0583 13.4849C82.7236 13.6229 82.3786 13.7954 82.0232 14.0093C81.8231 14.1473 84.1416 16.207 87.0016 15.479C90.5621 21.5752 90.7518 28.4615 90.0308 32.0703C107.24 24.5975 99.6426 5.86377 77.5451 6.00522H77.5485Z" fill="#E62310"/>
<path d="M95.5303 0.799431C95.0404 0.844282 95.9512 3.67331 98.6595 5.50183C98.6595 5.50873 98.6595 5.51563 98.6664 5.52253C97.966 5.34658 97.2139 5.19823 96.4066 5.07748C95.9339 5.02918 96.2962 8.07211 99.0838 9.97308C98.3627 9.81438 97.552 9.72813 96.6377 9.73158C96.41 9.74193 96.7585 11.6222 98.6008 13.43C97.0828 20.5336 92.5494 28.2203 90.0413 32.0775C109.603 23.963 118.073 -0.245931 95.5303 0.799431Z" fill="#0080CB"/>
<path d="M98.1179 15.3518C96.279 21.8793 92.3218 28.562 90.0344 32.0741C99.0701 28.1514 101.268 21.1237 98.1179 15.3518Z" fill="#2C1F86"/>
</g>
<defs>
<clipPath id="clip0_119_517">
<rect width="108" height="41.297" fill="white" transform="translate(1 0.764648)"/>
</clipPath>
</defs>
</svg>
